<svg width="16" height="5" viewBox="0 0 16 5" fill="none" xmlns="http://www.w3.org/2000/svg">
<path d="M2.43925 1.13375e-05C1.97804 0.000152501 1.52631 0.131008 1.13644 0.377408C0.746562 0.623809 0.434506 0.975663 0.236444 1.39218C0.0383832 1.8087 -0.0375715 2.27282 0.0173855 2.73075C0.0723425 3.18868 0.25596 3.62165 0.546953 3.97947C0.837945 4.3373 1.22439 4.60532 1.6615 4.75248C2.09861 4.89963 2.56847 4.91988 3.01662 4.81089C3.46477 4.70189 3.87284 4.46811 4.19355 4.13666C4.51425 3.8052 4.73445 3.38963 4.8286 2.93813L11.1083 2.93813C11.2316 3.52919 11.5696 4.05356 12.0571 4.40986C12.5445 4.76616 13.1467 4.92908 13.7473 4.86712C14.3479 4.80516 14.9042 4.52273 15.3086 4.07442C15.7131 3.62612 15.9369 3.04378 15.9369 2.44C15.9369 1.83623 15.7131 1.25389 15.3086 0.805589C14.9042 0.357284 14.3479 0.0748499 13.7473 0.0128921C13.1467 -0.0490657 12.5445 0.113853 12.0571 0.47015C11.5696 0.826448 11.2316 1.35082 11.1083 1.94188L4.8286 1.94188C4.71326 1.39336 4.41296 0.90112 3.97798 0.547606C3.543 0.194092 2.99977 0.00076853 2.43925 1.13375e-05ZM13.4977 0.996266C13.7834 0.99643 14.0626 1.08129 14.3 1.24012C14.5375 1.39895 14.7225 1.62462 14.8317 1.8886C14.9409 2.15257 14.9694 2.443 14.9136 2.72317C14.8577 3.00333 14.7201 3.26065 14.518 3.46259C14.316 3.66454 14.0586 3.80204 13.7784 3.85771C13.4982 3.91338 13.2078 3.88472 12.9438 3.77536C12.6799 3.666 12.4544 3.48085 12.2957 3.24331C12.137 3.00577 12.0523 2.72651 12.0523 2.44084C12.0527 2.05763 12.2051 1.69024 12.4761 1.41927C12.7471 1.1483 13.1145 0.995875 13.4977 0.995435L13.4977 0.996266ZM3.88465 2.44084C3.88465 2.72671 3.79988 3.00616 3.64106 3.24386C3.48223 3.48155 3.25649 3.66681 2.99238 3.77621C2.72827 3.88561 2.43765 3.91423 2.15727 3.85846C1.87689 3.80269 1.61934 3.66503 1.4172 3.46289C1.21506 3.26074 1.07739 3.0032 1.02162 2.72282C0.965853 2.44244 0.994476 2.15182 1.10388 1.8877C1.21327 1.62359 1.39853 1.39785 1.63623 1.23903C1.87392 1.08021 2.15338 0.995436 2.43925 0.995436C2.82246 0.995875 3.18985 1.1483 3.46082 1.41927C3.73179 1.69024 3.88421 2.05763 3.88465 2.44084Z" fill="#2DC8A6"/>
</svg>
